<svg xmlns="http://www.w3.org/2000/svg" width="144" height="144" viewBox="0 0 144 144">
  <g fill="none" fill-rule="evenodd">
<path fill="#EFEFEF" fill-rule="nonzero" d="M91.836,50.284 L63.024,70.08 C63.024,70.08 61.908,70.884 61.908,72.004 C61.908,73.124 63.024,73.92 63.024,73.92 L91.836,93.724 C94.124,95.244 96,94.12 96,91.22 L96,52.784 C96,49.876 94.124,48.752 91.836,50.284 Z M56,48 L52,48 C49.788,48 48,48.192 48,50.4 L48,93.6 C48,95.808 49.788,96 52,96 L56,96 C58.212,96 60,95.808 60,93.6 L60,50.4 C60,48.192 58.212,48 56,48 Z"/>
  </g>
</svg>
