<svg xmlns="http://www.w3.org/2000/svg" width="144" height="144" viewBox="0 0 144 144">
  <g fill="none" fill-rule="evenodd">
<path fill="#EFEFEF" fill-rule="nonzero" d="M92,44 L84,44 C81.788,44 80,44.192 80,46.4 L80,97.6 C80,99.808 81.788,100 84,100 L92,100 C94.212,100 96,99.808 96,97.6 L96,46.4 C96,44.192 94.212,44 92,44 Z M60,44 L52,44 C49.788,44 48,44.192 48,46.4 L48,97.6 C48,99.808 49.788,100 52,100 L60,100 C62.212,100 64,99.808 64,97.6 L64,46.4 C64,44.192 62.212,44 60,44 Z"/>
  </g>
</svg>
