<svg xmlns="http://www.w3.org/2000/svg" width="144" height="144" viewBox="0 0 144 144">
  <g fill="none" fill-rule="evenodd">
<path fill="#EFEFEF" fill-rule="nonzero" d="M80.976,70.08 L52.164,50.284 C49.876,48.752 48,49.876 48,52.784 L48,91.22 C48,94.12 49.876,95.244 52.164,93.72 L80.976,73.916 C80.976,73.916 82.092,73.12 82.092,72.004 C82.092,70.884 80.976,70.08 80.976,70.08 Z M88,48 L92,48 C94.212,48 96,48.192 96,50.4 L96,93.6 C96,95.808 94.212,96 92,96 L88,96 C85.788,96 84,95.808 84,93.6 L84,50.4 C84,48.192 85.788,48 88,48 Z"/>
  </g>
</svg>
