<svg xmlns="http://www.w3.org/2000/svg" width="144" height="144" viewBox="0 0 144 144">
  <g fill="none" fill-rule="evenodd">
<path fill="#EFEFEF" fill-rule="nonzero" d="M100.76,47.624 C94.072,41.484 83.228,41.484 76.54,47.624 L72,51.788 L67.456,47.624 C60.768,41.484 49.928,41.484 43.24,47.624 C35.716,54.528 35.716,65.7 43.24,72.604 L72,99 L100.76,72.604 C108.28,65.7 108.28,54.524 100.76,47.624 Z M96.496,68.5 L72,91.36 L47.5,68.5 C45.032,66.232 44.076,63.272 44.076,60.124 C44.076,56.976 44.628,54.392 47.1,52.128 C49.28,50.124 52.212,49.02 55.352,49.02 C58.488,49.02 61.42,50.924 63.6,52.932 L72,60.232 L80.396,52.928 C82.58,50.92 85.508,49.016 88.648,49.016 C91.788,49.016 94.72,50.12 96.9,52.124 C99.372,54.388 99.92,56.972 99.92,60.12 C99.92,63.268 98.968,66.232 96.496,68.5 Z"/>
  </g>
</svg>
