<svg xmlns="http://www.w3.org/2000/svg" width="144" height="144" viewBox="0 0 144 144">
  <g fill="none" fill-rule="evenodd">
<path fill="#EFEFEF" fill-rule="nonzero" d="M57.408,81.552 C57.94,82.976 43.252,96.088 51.82,106.716 C53.824,109.2 60.624,94.816 70.28,88.308 C75.604,84.712 88,77.064 88,72.836 L88,45.468 C88,40.384 68.344,35 53.408,35 C47.932,35 40,69.304 40,74.756 C40,80.224 56.884,80.128 57.408,81.552 Z M92,81.172 C94.632,81.172 104,79.572 104,68.68 L104,49.288 C104,38.404 94.632,37.204 92,37.204 C89.372,37.204 96,39.492 96,46.244 L96,71.736 C96,78.808 89.372,81.172 92,81.172 Z"/>
  </g>
</svg>
