<svg xmlns="http://www.w3.org/2000/svg" width="144" height="144" viewBox="0 0 144 144">
  <g fill="none" fill-rule="evenodd">
<path fill="#EFEFEF" fill-rule="nonzero" d="M78.412,71.332 L69.428,67.14 C68.644,66.776 68,67.184 68,68.052 L68,75.948 C68,76.816 68.644,77.224 69.428,76.86 L78.408,72.668 C79.196,72.3 79.196,71.7 78.412,71.332 Z M72,33.6 C50.792,33.6 33.6,50.792 33.6,72 C33.6,93.208 50.792,110.4 72,110.4 C93.208,110.4 110.4,93.208 110.4,72 C110.4,50.792 93.208,33.6 72,33.6 Z M72,87.6 C52.344,87.6 52,85.828 52,72 C52,58.172 52.344,56.4 72,56.4 C91.656,56.4 92,58.172 92,72 C92,85.828 91.656,87.6 72,87.6 Z"/>
  </g>
</svg>
